<?xml version="1.0" encoding="UTF-8" standalone="no"?>
<!-- Created with Inkscape (http://www.inkscape.org/) -->

<svg
   xmlns:dc="http://purl.org/dc/elements/1.1/"
   xmlns:cc="http://creativecommons.org/ns#"
   xmlns:rdf="http://www.w3.org/1999/02/22-rdf-syntax-ns#"
   xmlns:svg="http://www.w3.org/2000/svg"
   xmlns="http://www.w3.org/2000/svg"
   xmlns:sodipodi="http://sodipodi.sourceforge.net/DTD/sodipodi-0.dtd"
   xmlns:inkscape="http://www.inkscape.org/namespaces/inkscape"
   version="1.1"
   id="svg2"
   width="339.84"
   height="264.32001"
   viewBox="0 0 339.84 264.32001"
   sodipodi:docname="Logo_RTU.svg"
   inkscape:export-filename="D:\# Fibra\## Sites\RTU\Logo_RTU_nova.png"
   inkscape:export-xdpi="300"
   inkscape:export-ydpi="300"
   inkscape:version="0.92.4 (5da689c313, 2019-01-14)">
  <metadata
     id="metadata8">
    <rdf:RDF>
      <cc:Work
         rdf:about="">
        <dc:format>image/svg+xml</dc:format>
        <dc:type
           rdf:resource="http://purl.org/dc/dcmitype/StillImage" />
        <dc:title></dc:title>
      </cc:Work>
    </rdf:RDF>
  </metadata>
  <defs
     id="defs6" />
  <sodipodi:namedview
     pagecolor="#ffffff"
     bordercolor="#666666"
     borderopacity="1"
     objecttolerance="10"
     gridtolerance="10"
     guidetolerance="10"
     inkscape:pageopacity="0"
     inkscape:pageshadow="2"
     inkscape:window-width="1366"
     inkscape:window-height="705"
     id="namedview4"
     showgrid="false"
     inkscape:zoom="4"
     inkscape:cx="211.15012"
     inkscape:cy="85.393369"
     inkscape:window-x="-8"
     inkscape:window-y="-8"
     inkscape:window-maximized="1"
     inkscape:current-layer="svg2" />
  <path
     style="fill:#ff6600;stroke:#000000;stroke-width:0;stroke-linecap:butt;stroke-linejoin:miter;stroke-miterlimit:4;stroke-dasharray:none;stroke-opacity:1"
     d="m 30.23215,119.2924 39.99396,-35.440191 8.11759,5.741708 30.78743,-37.717077 19.20502,13.463313 14.84924,-24.946728 1.08895,1.484925 22.27386,-38.410042 19.89799,29.401501 3.36583,-0.98995 5.7417,10.097485 4.0588,-2.474873 22.07587,34.252253 20.98693,-11.483414 32.47034,34.945218 33.55929,22.174872 -46.23064,-16.03719 -8.21658,-10.790445 -9.70151,0.099 -0.29698,-9.107536 -6.43467,-10.19648 -11.28543,5.246733 3.06885,15.047233 19.601,18.314075 -43.55778,-15.839202 -7.72161,2.276884 -11.08743,-27.223612 -12.27538,14.057284 -3.36583,-8.216581 5.84071,-18.611051 -8.71156,-11.97839 0.19799,-8.81055 -3.16784,-10.98844 -11.7804,29.99547 -5.34572,-7.523616 -12.07739,20.98693 -2.57387,12.176379 -29.00552,15.938187 8.21658,-13.166328 -5.04874,-7.325627 0.69296,-9.99849 -7.62261,12.176379 -3.06884,-3.365828 -19.20502,27.817582 -16.63115,5.74171 7.42462,-10.196483 -2.0789,-4.157788 -16.73014,15.740201 z"
     id="path12"
     inkscape:connector-curvature="0" />
  <path
     style="fill:#ff6600;stroke:#000000;stroke-width:0;stroke-linecap:butt;stroke-linejoin:miter;stroke-miterlimit:4;stroke-dasharray:none;stroke-opacity:1;fill-opacity:1"
     d="m 19.62,227.29001 c 12.98895,-4.55916 26.32445,-7.55055 39.13,-8.26 15.61724,-0.86522 29.27317,-0.53493 42.7,0.7 -11.12581,-4.08834 -27.44364,-4.57625 -44.73,-3.5 -19.72501,1.22808 -30.34375,6.41773 -37.1,11.06 z"
     id="path822"
     inkscape:connector-curvature="0"
     sodipodi:nodetypes="cscsc" />
  <path
     style="fill:#ff6600;stroke:#000000;stroke-width:0;stroke-linecap:butt;stroke-linejoin:miter;stroke-miterlimit:4;stroke-dasharray:none;stroke-opacity:1;fill-opacity:1"
     d="m 303.91109,202.94934 c -12.61434,2.82675 -25.35621,5.98751 -38.2822,6.73855 -15.71976,0.91337 -33.1868,0.21534 -46.91704,-0.29819 11.2032,3.78571 30.64456,4.6575 48.05116,3.66091 19.86222,-1.13717 30.34483,-5.80264 37.14808,-10.10127 z"
     id="path822-0"
     inkscape:connector-curvature="0"
     sodipodi:nodetypes="cscsc"
     inkscape:export-xdpi="300"
     inkscape:export-ydpi="300" />
  <path
     style="fill:#003380;stroke:#000000;stroke-width:0;stroke-linecap:butt;stroke-linejoin:miter;stroke-miterlimit:4;stroke-dasharray:none;stroke-opacity:1"
     d="m 13.44544,219.77228 c 14.52936,-4.17525 29.34925,-8.73124 44.21562,-9.23528 44.81767,-1.51952 83.85714,3.71837 122.78658,8.25673 25.60497,2.84856 50.77409,4.8662 79.87794,4.19974 15.43575,-0.35347 38.82604,-5.37028 53.99379,-14.5349 -24.552,7.02361 -48.96664,10.47576 -73.18555,8.83884 -35.75838,-2.49968 -70.6554,-6.72207 -105.79457,-10.46016 -25.13025,-0.68808 -50.27283,-2.9994 -77.27807,-0.25 -12.20204,1.24229 -32.91364,7.01936 -44.61574,13.18503 z"
     id="path839"
     inkscape:connector-curvature="0"
     sodipodi:nodetypes="cscscccsc" />
  <path
     style="fill:#16502d;stroke:#000000;stroke-width:0;stroke-linecap:butt;stroke-linejoin:miter;stroke-miterlimit:4;stroke-dasharray:none;stroke-opacity:1"
     d="M 47.75,201.44501 H 26.875 v -75.375 l 70.875,0.875 c 15.27605,3.19852 20.65016,16.44817 18.86047,30.17685 -1.23445,9.4695 -5.82311,18.52297 -19.73547,20.57315 l 21.375,23.375 -26.25,0.375 -19,-22.5 H 53.5 l 11.25,-16.875 c 20.39802,0.12791 31.41802,4.3455 31,-9.5 -0.10652,-3.528 -0.83186,-7.46571 -6.875,-7.875 l -41,-0.375 z"
     id="path841"
     inkscape:connector-curvature="0"
     sodipodi:nodetypes="ccccsccccccsccc" />
  <path
     style="fill:#16502d;stroke:#000000;stroke-width:0;stroke-linecap:butt;stroke-linejoin:miter;stroke-miterlimit:4;stroke-dasharray:none;stroke-opacity:1"
     d="m 122.25,126.19501 0.375,13.75 6.125,-13.625 z"
     id="path843"
     inkscape:connector-curvature="0" />
  <path
     style="fill:#16502d;stroke:#000000;stroke-width:0;stroke-linecap:butt;stroke-linejoin:miter;stroke-miterlimit:4;stroke-dasharray:none;stroke-opacity:1"
     d="m 154.25,144.19501 -30,0.25 7.875,-18.375 80.75,0.25 -11.625,18.25 -26.125,-0.25 0.25,34.75 -20.75,21.625 z"
     id="path845"
     inkscape:connector-curvature="0" />
  <path
     style="fill:#16502d;stroke:#000000;stroke-width:0;stroke-linecap:butt;stroke-linejoin:miter;stroke-miterlimit:4;stroke-dasharray:none;stroke-opacity:1"
     d="m 175.375,184.57001 0.25,16.625 -16.5,0.25 z"
     id="path847"
     inkscape:connector-curvature="0" />
  <path
     style="fill:#16502d;stroke:#000000;stroke-width:0;stroke-linecap:butt;stroke-linejoin:miter;stroke-miterlimit:4;stroke-dasharray:none;stroke-opacity:1"
     d="m 281.625,180.69501 -0.5,20.625 -36.125,0.25 c -11.01331,-0.97975 -21.6848,-4.19669 -27,-22.5 l -1.125,-36.25 15,-16.5 5.75,-0.25 v 46.375 c 1.55602,8.64706 7.449,12.29956 13,11.625 l 25.25,-0.25 c 1.91667,-0.53547 3.83333,-0.97291 5.75,-3.125 z"
     id="path849"
     inkscape:connector-curvature="0"
     sodipodi:nodetypes="ccccccccccc" />
  <path
     style="fill:#16502d;stroke:#000000;stroke-width:0;stroke-linecap:butt;stroke-linejoin:miter;stroke-miterlimit:4;stroke-dasharray:none;stroke-opacity:1"
     d="m 217,126.07001 9.625,0.125 -9.375,11.25 z"
     id="path851"
     inkscape:connector-curvature="0" />
  <path
     style="fill:#16502d;stroke:#000000;stroke-width:0;stroke-linecap:butt;stroke-linejoin:miter;stroke-miterlimit:4;stroke-dasharray:none;stroke-opacity:1"
     d="m 285.625,126.19501 h 21.125 l -21.125,27.875 z"
     id="path853"
     inkscape:connector-curvature="0" />
  <path
     style="fill:#16502d;stroke:#000000;stroke-width:0;stroke-linecap:butt;stroke-linejoin:miter;stroke-miterlimit:4;stroke-dasharray:none;stroke-opacity:1"
     d="m 285.375,160.44501 -0.5,39.875 c 8.15348,-1.41539 21.375,-12.14796 21.375,-24 v -42.5 z"
     id="path855"
     inkscape:connector-curvature="0"
     sodipodi:nodetypes="ccscc" />
  <text
     xml:space="preserve"
     style="font-style:normal;font-weight:normal;font-size:16px;line-height:1.25;font-family:sans-serif;letter-spacing:0px;word-spacing:0px;fill:#16502d;fill-opacity:1;stroke:none"
     x="43.75"
     y="246.69501"
     id="text859"><tspan
       sodipodi:role="line"
       id="tspan857"
       x="43.75"
       y="246.69501"
       style="font-size:18.66666603px">RANKING  TRAIL UBATUBA</tspan></text>
</svg>
